Coordinates
version=1
nRows=17
nColumns=24
inDegrees=yes

Units are S.I. units (second, meters, Newtons, ...)
Angles are in degrees.

endheader
time	pelvis_tilt	pelvis_list	pelvis_rotation	pelvis_tx	pelvis_ty	pelvis_tz	hip_flexion_r	hip_adduction_r	hip_rotation_r	knee_angle_r	ankle_angle_r	subtalar_angle_r	mtp_angle_r	hip_flexion_l	hip_adduction_l	hip_rotation_l	knee_angle_l	ankle_angle_l	subtalar_angle_l	mtp_angle_l	lumbar_extension	lumbar_bending	lumbar_rotation
47.49800000	4.84455933	-1.84559258	-0.77772078	0.60102028	1.04559875	-0.02160049	27.14031179	-2.90617367	-6.95037445	-26.13869243	-2.08159915	-0.00000082	0.00000000	-4.79605018	1.38076320	0.20135362	-46.68206258	-28.04470333	0.00000249	0.00000000	-19.54310531	-0.47001089	-4.72635202
47.50000000	4.84455933	-1.84559258	-0.77772078	0.60102028	1.04559875	-0.02160049	26.97446459	-2.90617367	-6.95037445	-26.38944005	-1.86985004	-0.00000082	0.00000000	-4.29628747	1.38076320	0.20135362	-47.64135977	-28.13591497	0.00000249	0.00000000	-19.54310531	-0.47001089	-4.72635202
47.50200000	4.84455933	-1.84559258	-0.77772078	0.60102028	1.04559875	-0.02160049	26.79452131	-2.90617367	-6.95037445	-26.61651404	-1.64588551	-0.00000082	0.00000000	-3.78995796	1.38076320	0.20135362	-48.59656021	-28.17158456	0.00000249	0.00000000	-19.54310531	-0.47001089	-4.72635202
47.50400000	4.84455933	-1.84559258	-0.77772078	0.60102028	1.04559875	-0.02160049	26.59996822	-2.90617367	-6.95037445	-26.81940190	-1.41132772	-0.00000082	0.00000000	-3.27640628	1.38076320	0.20135362	-49.54558379	-28.15362398	0.00000249	0.00000000	-19.54310531	-0.47001089	-4.72635202
47.50600000	4.84455933	-1.84559258	-0.77772078	0.60102028	1.04559875	-0.02160049	26.39031112	-2.90617367	-6.95037445	-26.99785566	-1.16778536	-0.00000082	0.00000000	-2.75541996	1.38076320	0.20135362	-50.48666753	-28.08453041	0.00000249	0.00000000	-19.54310531	-0.47001089	-4.72635202
47.50800000	4.84455933	-1.84559258	-0.77772078	0.60102028	1.04559875	-0.02160049	26.16573899	-2.90617367	-6.95037445	-27.15155377	-0.91670397	-0.00000082	0.00000000	-2.22731627	1.38076320	0.20135362	-51.41843682	-27.96724775	0.00000249	0.00000000	-19.54310531	-0.47001089	-4.72635202
47.51000000	4.84455933	-1.84559258	-0.77772078	0.60102028	1.04559875	-0.02160049	25.92620445	-2.90617367	-6.95037445	-27.28054912	-0.65949366	-0.00000082	0.00000000	-1.69195408	1.38076320	0.20135362	-52.33940357	-27.80503274	0.00000249	0.00000000	-19.54310531	-0.47001089	-4.72635202
47.51200000	4.84455933	-1.84559258	-0.77772078	0.60102028	1.04559875	-0.02160049	25.67159438	-2.90617367	-6.95037445	-27.38516926	-0.39747060	-0.00000082	0.00000000	-1.14927050	1.38076320	0.20135362	-53.24825794	-27.60143147	0.00000249	0.00000000	-19.54310531	-0.47001089	-4.72635202
47.51400000	4.84455933	-1.84559258	-0.77772078	0.60102028	1.04559875	-0.02160049	25.40179931	-2.90617367	-6.95037445	-27.46596528	-0.13185773	-0.00000082	0.00000000	-0.59913760	1.38076320	0.20135362	-54.14378106	-27.36018933	0.00000249	0.00000000	-19.54310531	-0.47001089	-4.72635202
47.51600000	4.84455933	-1.84559258	-0.77772078	0.60102028	1.04559875	-0.02160049	25.11598254	-2.90617367	-6.95037445	-27.52405856	0.13614132	-0.00000082	0.00000000	-0.04128757	1.38076320	0.20135362	-55.02480001	-27.08515777	0.00000249	0.00000000	-19.54310531	-0.47001089	-4.72635202
47.51800000	4.84455933	-1.84559258	-0.77772078	0.60102028	1.04559875	-0.02160049	24.81625884	-2.90617367	-6.95037445	-27.55927408	0.40575639	-0.00000082	0.00000000	0.52324547	1.38076320	0.20135362	-55.89100217	-26.78028945	0.00000249	0.00000000	-19.54310531	-0.47001089	-4.72635202
47.52000000	4.84455933	-1.84559258	-0.77772078	0.60102028	1.04559875	-0.02160049	24.50275949	-2.90617367	-6.95037445	-27.57260887	0.67609018	-0.00000082	0.00000000	1.09444224	1.38076320	0.20135362	-56.74160141	-26.44943990	0.00000249	0.00000000	-19.54310531	-0.47001089	-4.72635202
47.52200000	4.84455933	-1.84559258	-0.77772078	0.60102028	1.04559875	-0.02160049	24.17654172	-2.90617367	-6.95037445	-27.56475499	0.94646444	-0.00000082	0.00000000	1.67126928	1.38076320	0.20135362	-57.57640246	-26.09635331	0.00000249	0.00000000	-19.54310531	-0.47001089	-4.72635202
47.52400000	4.84455933	-1.84559258	-0.77772078	0.60102028	1.04559875	-0.02160049	23.83868109	-2.90617367	-6.95037445	-27.53652529	1.21629051	-0.00000082	0.00000000	2.25340110	1.38076320	0.20135362	-58.39493456	-25.72455564	0.00000249	0.00000000	-19.54310531	-0.47001089	-4.72635202
47.52600000	4.84455933	-1.84559258	-0.77772078	0.60102028	1.04559875	-0.02160049	23.49012310	-2.90617367	-6.95037445	-27.48891550	1.48508287	-0.00000082	0.00000000	2.84023659	1.38076320	0.20135362	-59.19690449	-25.33732972	0.00000249	0.00000000	-19.54310531	-0.47001089	-4.72635202
47.52800000	4.84455933	-1.84559258	-0.77772078	0.60102028	1.04559875	-0.02160049	23.13213829	-2.90617367	-6.95037445	-27.42285153	1.75246470	-0.00000082	0.00000000	3.43120497	1.38076320	0.20135362	-59.98203819	-24.93765809	0.00000249	0.00000000	-19.54310531	-0.47001089	-4.72635202
47.53000000	4.84455933	-1.84559258	-0.77772078	0.60102028	1.04559875	-0.02160049	22.76531000	-2.90617367	-6.95037445	-27.33967947	2.01807295	-0.00000082	0.00000000	4.02665518	1.38076320	0.20135362	-60.74958955	-24.52813803	0.00000249	0.00000000	-19.54310531	-0.47001089	-4.72635202
